<svg width="75" height="75" viewBox="0 0 75 75" fill="none" xmlns="http://www.w3.org/2000/svg">
    <path d="M21.6172 43.3261C21.1059 43.3261 20.6112 43.0874 20.295 42.6609L16.9938 38.2154V41.6796C16.9938 42.5885 16.2562 43.3261 15.3474 43.3261C14.4385 43.3261 13.7009 42.5885 13.7009 41.6796V33.2365C13.7009 32.526 14.1561 31.8962 14.8304 31.6731C15.5054 31.4492 16.2463 31.6846 16.6687 32.2551L19.9699 36.7007V33.2365C19.9699 32.3276 20.7075 31.59 21.6163 31.59C22.5252 31.59 23.2628 32.3276 23.2628 33.2365V41.6796C23.2628 42.3893 22.8076 43.0199 22.1333 43.2421C21.9637 43.2989 21.7892 43.3261 21.6172 43.3261Z" fill="#1F1C2C"/>
    <path d="M31.9555 39.1046C32.8643 39.1046 33.602 38.367 33.602 37.4582C33.602 36.5493 32.8643 35.8117 31.9555 35.8117H29.3433V34.8831H31.9555C32.8643 34.8831 33.602 34.1454 33.602 33.2366C33.602 32.3277 32.8643 31.5901 31.9555 31.5901H27.6968C26.788 31.5901 26.0504 32.3277 26.0504 33.2366V41.6797C26.0504 42.5886 26.788 43.3262 27.6968 43.3262H31.9555C32.8643 43.3262 33.602 42.5886 33.602 41.6797C33.602 40.7709 32.8643 40.0333 31.9555 40.0333H29.3433V39.1046H31.9555Z" fill="#1F1C2C"/>
    <path d="M45.0508 43.3261C44.3436 43.3261 43.7113 42.8725 43.4882 42.195L42.269 38.4953L41.0498 42.195C40.8185 42.8972 40.1253 43.3492 39.4132 43.3245C38.6756 43.2916 38.0507 42.7721 37.8828 42.0534L35.9136 33.6102C35.707 32.7244 36.2577 31.8394 37.1435 31.6328C38.0302 31.4245 38.9143 31.9769 39.1201 32.8627L39.7573 35.5959L40.7049 32.7211C40.928 32.0461 41.5577 31.59 42.2682 31.59C42.9787 31.59 43.6093 32.0461 43.8315 32.7211L44.7791 35.5967L45.4171 32.8627C45.6229 31.9769 46.5104 31.4253 47.3937 31.6336C48.2795 31.8403 48.8294 32.7261 48.6228 33.6111L46.6528 42.0534C46.4857 42.7721 45.86 43.2916 45.1232 43.3245C45.1002 43.3253 45.0755 43.3261 45.0508 43.3261Z" fill="#1F1C2C"/>
    <g filter="url(#filter0_d_70_4)">
        <path d="M55.0449 43.3261H51.8952C50.9863 43.3261 50.2487 42.5885 50.2487 41.6797C50.2487 40.7708 50.9863 40.0332 51.8952 40.0332H55.0449C55.301 40.0332 55.5084 39.8249 55.5084 39.5689C55.5084 39.3128 55.3001 39.1054 55.0449 39.1054H54.0052C51.9331 39.1054 50.2487 37.4202 50.2487 35.3481C50.2487 33.276 51.9339 31.5908 54.0052 31.5908H56.4379C57.3467 31.5908 58.0843 32.3284 58.0843 33.2373C58.0843 34.1462 57.3467 34.8838 56.4379 34.8838H54.0052C53.7491 34.8838 53.5417 35.0921 53.5417 35.3481C53.5417 35.6041 53.75 35.8116 54.006 35.8116H55.0458C57.1179 35.8116 58.8022 37.4968 58.8022 39.568C58.8022 41.6401 57.117 43.3261 55.0449 43.3261Z" fill="#1F1C2C"/>
    </g>
    <path d="M71.6909 26.6539C67.0165 11.833 53.0831 1.56226 37.458 1.56226C21.8329 1.56226 7.8995 11.8322 3.22513 26.653C1.59182 27.2359 0.412109 28.7828 0.412109 30.6137V44.3033C0.412109 46.1342 1.59182 47.6803 3.2243 48.2623C7.8995 63.0832 21.8329 73.3539 37.458 73.3539C53.0831 73.3539 67.0165 63.084 71.6917 48.2623C73.3242 47.6795 74.5039 46.1334 74.5039 44.3025V30.6137C74.5039 28.7828 73.3242 27.2359 71.6909 26.6539ZM6.7873 48.5208H18.4757C18.9845 51.412 19.6776 54.1156 20.5289 56.596H11.0805C9.29736 54.1526 7.84187 51.4425 6.7873 48.5208ZM21.8246 48.5208H35.8115V56.596H24.0375C23.1221 54.1518 22.3721 51.4417 21.8246 48.5208ZM35.8115 59.889V69.8897C31.8287 69.0928 28.1603 65.4483 25.4469 59.889H35.8115ZM39.1045 69.8897V59.889H49.4691C46.7557 65.4483 43.0873 69.0928 39.1045 69.8897ZM39.1045 56.596V48.5208H53.0905C52.5439 51.4417 51.7939 54.151 50.8785 56.596H39.1045ZM56.4411 48.5208H68.1295C67.075 51.4425 65.6186 54.1518 63.8347 56.596H54.388C55.2392 54.1164 55.9324 51.4129 56.4411 48.5208ZM63.8347 18.3194C65.6186 20.7636 67.0741 23.4729 68.1295 26.3945H56.442C55.9332 23.5033 55.24 20.7998 54.3888 18.3194H63.8347ZM61.0867 15.0264H53.1054C51.6054 11.6017 49.7737 8.72611 47.6983 6.52394C52.8016 8.22558 57.4027 11.1637 61.0867 15.0264ZM39.1045 5.02646C43.0882 5.82253 46.7565 9.46703 49.4699 15.0264H39.1045V5.02646ZM39.1045 18.3194H50.8785C51.7939 20.7636 52.5439 23.4737 53.0905 26.3945H39.1045V18.3194ZM35.8115 5.02646V15.0264H25.4469C28.1603 9.46785 31.8287 5.82253 35.8115 5.02646ZM35.8115 18.3194V26.3945H21.8255C22.3721 23.4737 23.1221 20.7636 24.0383 18.3194H35.8115ZM27.2193 6.52311C25.1431 8.72529 23.3114 11.6017 21.8115 15.0264H13.8293C17.5141 11.1629 22.1161 8.22476 27.2193 6.52311ZM11.0813 18.3194H20.528C19.6768 20.799 18.9836 23.5033 18.4749 26.3945H6.7873C7.84187 23.4737 9.29736 20.7636 11.0813 18.3194ZM3.70508 30.6137C3.70508 30.1032 4.11999 29.6875 4.6304 29.6875H70.2856C70.796 29.6875 71.2109 30.1024 71.2109 30.6137V44.3033C71.2109 44.8138 70.796 45.2287 70.2856 45.2287H4.6304C4.11999 45.2278 3.70508 44.8138 3.70508 44.3025V30.6137ZM13.8285 59.889H21.8115C23.3114 63.3137 25.1439 66.1909 27.2202 68.3931C22.1161 66.6914 17.5133 63.7524 13.8285 59.889ZM47.6958 68.3931C49.7721 66.1901 51.6046 63.3137 53.1045 59.889H61.0875C57.4019 63.7524 52.7999 66.6914 47.6958 68.3931Z" fill="#1F1C2C"/>
    <path d="M71.6909 26.6539C67.0165 11.833 53.0831 1.56226 37.458 1.56226C21.8329 1.56226 7.8995 11.8322 3.22513 26.653C1.59182 27.2359 0.412109 28.7828 0.412109 30.6137V44.3033C0.412109 46.1342 1.59182 47.6803 3.2243 48.2623C7.8995 63.0832 21.8329 73.3539 37.458 73.3539C53.0831 73.3539 67.0165 63.084 71.6917 48.2623C73.3242 47.6795 74.5039 46.1334 74.5039 44.3025V30.6137C74.5039 28.7828 73.3242 27.2359 71.6909 26.6539ZM6.7873 48.5208H18.4757C18.9845 51.412 19.6776 54.1156 20.5289 56.596H11.0805C9.29736 54.1526 7.84187 51.4425 6.7873 48.5208ZM21.8246 48.5208H35.8115V56.596H24.0375C23.1221 54.1518 22.3721 51.4417 21.8246 48.5208ZM35.8115 59.889V69.8897C31.8287 69.0928 28.1603 65.4483 25.4469 59.889H35.8115ZM39.1045 69.8897V59.889H49.4691C46.7557 65.4483 43.0873 69.0928 39.1045 69.8897ZM39.1045 56.596V48.5208H53.0905C52.5439 51.4417 51.7939 54.151 50.8785 56.596H39.1045ZM56.4411 48.5208H68.1295C67.075 51.4425 65.6186 54.1518 63.8347 56.596H54.388C55.2392 54.1164 55.9324 51.4129 56.4411 48.5208ZM63.8347 18.3194C65.6186 20.7636 67.0741 23.4729 68.1295 26.3945H56.442C55.9332 23.5033 55.24 20.7998 54.3888 18.3194H63.8347ZM61.0867 15.0264H53.1054C51.6054 11.6017 49.7737 8.72611 47.6983 6.52394C52.8016 8.22558 57.4027 11.1637 61.0867 15.0264ZM39.1045 5.02646C43.0882 5.82253 46.7565 9.46703 49.4699 15.0264H39.1045V5.02646ZM39.1045 18.3194H50.8785C51.7939 20.7636 52.5439 23.4737 53.0905 26.3945H39.1045V18.3194ZM35.8115 5.02646V15.0264H25.4469C28.1603 9.46785 31.8287 5.82253 35.8115 5.02646ZM35.8115 18.3194V26.3945H21.8255C22.3721 23.4737 23.1221 20.7636 24.0383 18.3194H35.8115ZM27.2193 6.52311C25.1431 8.72529 23.3114 11.6017 21.8115 15.0264H13.8293C17.5141 11.1629 22.1161 8.22476 27.2193 6.52311ZM11.0813 18.3194H20.528C19.6768 20.799 18.9836 23.5033 18.4749 26.3945H6.7873C7.84187 23.4737 9.29736 20.7636 11.0813 18.3194ZM3.70508 30.6137C3.70508 30.1032 4.11999 29.6875 4.6304 29.6875H70.2856C70.796 29.6875 71.2109 30.1024 71.2109 30.6137V44.3033C71.2109 44.8138 70.796 45.2287 70.2856 45.2287H4.6304C4.11999 45.2278 3.70508 44.8138 3.70508 44.3025V30.6137ZM13.8285 59.889H21.8115C23.3114 63.3137 25.1439 66.1909 27.2202 68.3931C22.1161 66.6914 17.5133 63.7524 13.8285 59.889ZM47.6958 68.3931C49.7721 66.1901 51.6046 63.3137 53.1045 59.889H61.0875C57.4019 63.7524 52.7999 66.6914 47.6958 68.3931Z" stroke="black"/>
    <defs>
        <filter id="filter0_d_70_4" x="46.2487" y="31.5908" width="16.5535" height="19.7354" filterUnits="userSpaceOnUse" color-interpolation-filters="sRGB">
            <feFlood flood-opacity="0" result="BackgroundImageFix"/>
            <feColorMatrix in="SourceAlpha" type="matrix" values="0 0 0 0 0 0 0 0 0 0 0 0 0 0 0 0 0 0 127 0" result="hardAlpha"/>
            <feOffset dy="4"/>
            <feGaussianBlur stdDeviation="2"/>
            <feComposite in2="hardAlpha" operator="out"/>
            <feColorMatrix type="matrix" values="0 0 0 0 0 0 0 0 0 0 0 0 0 0 0 0 0 0 0.25 0"/>
            <feBlend mode="normal" in2="BackgroundImageFix" result="effect1_dropShadow_70_4"/>
            <feBlend mode="normal" in="SourceGraphic" in2="effect1_dropShadow_70_4" result="shape"/>
        </filter>
    </defs>
</svg>